<svg aria-hidden="true" style="position: absolute; width: 0; height: 0; overflow: hidden;" version="1.1" xmlns="http://www.w3.org/2000/svg" xmlns:xlink="http://www.w3.org/1999/xlink">
<defs>
<symbol id="icon-Arrow-left" viewBox="0 0 32 32">
<path fill="#ddd" style="fill: var(--color1, #ddd)" d="M20.367 7.033c-0.228-0.227-0.543-0.367-0.891-0.367-0.015 0-0.030 0-0.045 0.001l0.002-0c-0.013-0-0.027-0.001-0.042-0.001-0.348 0-0.663 0.14-0.891 0.367l-7.467 7.467c-0.133 0.133-0.227 0.277-0.283 0.433-0.054 0.149-0.085 0.321-0.085 0.5s0.031 0.351 0.089 0.511l-0.003-0.011c0.065 0.17 0.161 0.314 0.282 0.433l7.467 7.467c0.235 0.235 0.559 0.382 0.917 0.384h0c0.016 0.001 0.035 0.001 0.054 0.001 0.352 0 0.67-0.148 0.895-0.385l0-0.001c0.227-0.228 0.367-0.543 0.367-0.891 0-0.015-0-0.030-0.001-0.045l0 0.002c0-0.013 0.001-0.027 0.001-0.042 0-0.348-0.14-0.663-0.367-0.891l0 0-6.5-6.533 6.5-6.533c0.235-0.234 0.382-0.558 0.384-0.916v-0c0.001-0.016 0.001-0.034 0.001-0.052 0-0.353-0.148-0.672-0.385-0.898l-0-0z"></path>
</symbol>
<symbol id="icon-ArrowDown" viewBox="0 0 32 32">
<path fill="#ddd" style="fill: var(--color1, #ddd)" d="M23.633 11.633c0.227 0.228 0.367 0.543 0.367 0.891 0 0.015-0 0.030-0.001 0.045l0-0.002c0 0.013 0.001 0.027 0.001 0.042 0 0.348-0.14 0.662-0.367 0.891l-7.467 7.467c-0.133 0.133-0.277 0.227-0.433 0.283-0.149 0.054-0.321 0.085-0.5 0.085s-0.351-0.031-0.511-0.088l0.011 0.003c-0.17-0.065-0.314-0.161-0.433-0.282l-7.467-7.467c-0.235-0.235-0.382-0.559-0.384-0.917v-0c-0.001-0.016-0.001-0.035-0.001-0.054 0-0.352 0.148-0.67 0.385-0.895l0.001-0.001c0.228-0.227 0.543-0.367 0.891-0.367 0.015 0 0.030 0 0.045 0.001l-0.002-0c0.012-0 0.027-0.001 0.041-0.001 0.348 0 0.663 0.14 0.892 0.367l-0-0 6.533 6.5 6.533-6.5c0.234-0.235 0.558-0.382 0.916-0.384h0c0.016-0.001 0.034-0.001 0.052-0.001 0.353 0 0.672 0.148 0.898 0.385l0 0.001z"></path>
</symbol>
<symbol id="icon-ArrowRight" viewBox="0 0 32 32">
<path fill="#ddd" style="fill: var(--color1, #ddd)" d="M11.633 7.033c0.228-0.227 0.543-0.367 0.891-0.367 0.015 0 0.030 0 0.045 0.001l-0.002-0c0.012-0 0.027-0.001 0.041-0.001 0.348 0 0.663 0.14 0.892 0.367l7.467 7.467c0.133 0.133 0.227 0.277 0.283 0.433 0.054 0.149 0.085 0.321 0.085 0.5s-0.031 0.351-0.088 0.511l0.003-0.011c-0.065 0.17-0.161 0.314-0.282 0.433l-7.467 7.467c-0.235 0.235-0.559 0.382-0.917 0.384h-0c-0.016 0.001-0.035 0.001-0.054 0.001-0.352 0-0.67-0.148-0.895-0.385l-0.001-0.001c-0.227-0.228-0.367-0.543-0.367-0.891 0-0.015 0-0.030 0.001-0.045l-0 0.002c-0-0.012-0.001-0.027-0.001-0.041 0-0.348 0.14-0.663 0.367-0.892l-0 0 6.5-6.533-6.5-6.533c-0.235-0.234-0.382-0.558-0.384-0.916v-0c-0.001-0.016-0.001-0.034-0.001-0.052 0-0.353 0.148-0.672 0.385-0.898l0.001-0z"></path>
</symbol>
<symbol id="icon-ArrowUp" viewBox="0 0 32 32">
<path fill="#ddd" style="fill: var(--color1, #ddd)" d="M7.033 20.367c-0.227-0.228-0.367-0.543-0.367-0.891 0-0.015 0-0.030 0.001-0.045l-0 0.002c-0-0.012-0.001-0.027-0.001-0.041 0-0.348 0.14-0.663 0.367-0.892l7.467-7.467c0.133-0.133 0.277-0.227 0.433-0.283 0.149-0.054 0.321-0.085 0.5-0.085s0.351 0.031 0.511 0.089l-0.011-0.003c0.17 0.065 0.314 0.161 0.433 0.282l7.467 7.467c0.235 0.235 0.382 0.559 0.384 0.917v0c0.001 0.016 0.001 0.035 0.001 0.054 0 0.352-0.148 0.67-0.385 0.895l-0.001 0c-0.228 0.227-0.543 0.367-0.891 0.367-0.015 0-0.030-0-0.045-0.001l0.002 0c-0.013 0-0.027 0.001-0.042 0.001-0.348 0-0.663-0.14-0.891-0.367l0 0-6.533-6.5-6.533 6.5c-0.234 0.235-0.558 0.382-0.916 0.384h-0c-0.016 0.001-0.034 0.001-0.052 0.001-0.353 0-0.672-0.148-0.898-0.385l-0-0z"></path>
</symbol>
<symbol id="icon-Basket" viewBox="0 0 32 32">
<path fill="#ddd" style="fill: var(--color1, #ddd)" d="M6.667 28c-0.002 0-0.005 0-0.007 0-0.389 0-0.746-0.132-1.031-0.354l0.004 0.003c-0.301-0.225-0.524-0.539-0.63-0.904l-0.003-0.012-3.732-13.467c-0.036-0.091-0.058-0.197-0.058-0.308 0-0.214 0.079-0.41 0.209-0.56l-0.001 0.001c0.212-0.267 0.495-0.4 0.849-0.4h6.733l5.867-8.733c0.117-0.182 0.274-0.329 0.46-0.43l0.007-0.003c0.182-0.105 0.4-0.167 0.633-0.167s0.451 0.062 0.64 0.17l-0.006-0.003c0.192 0.104 0.35 0.251 0.464 0.428l0.003 0.005 5.867 8.733h6.8c0.356 0 0.64 0.133 0.851 0.4 0.212 0.267 0.261 0.556 0.149 0.867l-3.733 13.467c-0.109 0.377-0.332 0.692-0.629 0.914l-0.005 0.003c-0.28 0.218-0.636 0.349-1.023 0.349-0.004 0-0.007 0-0.011-0h-18.666zM7.333 25.333h17.333l2.933-10.667h-23.2l2.933 10.667zM16 22.667c0.733 0 1.36-0.261 1.883-0.784s0.784-1.151 0.783-1.883c0-0.733-0.261-1.361-0.784-1.884-0.467-0.483-1.12-0.783-1.844-0.783-0.013 0-0.026 0-0.039 0l0.002-0c-0.733 0-1.36 0.261-1.884 0.784-0.483 0.467-0.783 1.12-0.783 1.844 0 0.014 0 0.027 0 0.041l-0-0.002c0 0.733 0.261 1.361 0.784 1.884s1.151 0.784 1.883 0.783zM12.231 12h7.503l-3.767-5.6-3.733 5.6z"></path>
</symbol>
<symbol id="icon-Cross" viewBox="0 0 32 32">
<path fill="#ddd" style="fill: var(--color1, #ddd)" d="M16 17.867l-6.533 6.533c-0.228 0.227-0.543 0.367-0.891 0.367-0.015 0-0.030-0-0.045-0.001l0.002 0c-0.013 0-0.027 0.001-0.042 0.001-0.348 0-0.662-0.14-0.891-0.367l0 0c-0.226-0.228-0.366-0.543-0.366-0.89 0-0.015 0-0.031 0.001-0.046l-0 0.002c0-0.377 0.121-0.689 0.367-0.933l6.533-6.533-6.533-6.533c-0.227-0.228-0.367-0.543-0.367-0.891 0-0.015 0-0.030 0.001-0.045l-0 0.002c0-0.377 0.121-0.689 0.367-0.933 0.228-0.227 0.543-0.367 0.891-0.367 0.015 0 0.030 0 0.045 0.001l-0.002-0c0.377 0 0.688 0.123 0.933 0.367l6.533 6.533 6.533-6.533c0.228-0.227 0.543-0.367 0.891-0.367 0.015 0 0.030 0 0.045 0.001l-0.002-0c0.377 0 0.688 0.123 0.933 0.367 0.227 0.228 0.367 0.543 0.367 0.891 0 0.015-0 0.030-0.001 0.045l0-0.002c0 0.013 0.001 0.027 0.001 0.042 0 0.348-0.14 0.662-0.367 0.891l-6.535 6.533 6.533 6.533c0.227 0.228 0.367 0.543 0.367 0.891 0 0.015-0 0.030-0.001 0.045l0-0.002c0 0.013 0.001 0.027 0.001 0.042 0 0.348-0.14 0.663-0.367 0.891l0-0c-0.229 0.227-0.544 0.367-0.891 0.367-0.015 0-0.029-0-0.044-0.001l0.002 0c-0.013 0-0.027 0.001-0.042 0.001-0.348 0-0.663-0.14-0.891-0.367l-6.533-6.533z"></path>
</symbol>
<symbol id="icon-Downward" viewBox="0 0 32 32">
<path fill="#ddd" style="fill: var(--color1, #ddd)" d="M14.667 18.9v-9.567c-0-0.009-0-0.019-0-0.029 0-0.361 0.148-0.687 0.386-0.921l0-0c0.233-0.237 0.557-0.383 0.915-0.383 0.011 0 0.023 0 0.034 0l-0.002-0c0.009-0 0.020-0 0.031-0 0.36 0 0.685 0.147 0.92 0.384l0 0c0.256 0.256 0.383 0.573 0.383 0.949v9.567l3.867-3.833c0.235-0.235 0.559-0.382 0.917-0.384h0c0.016-0.001 0.035-0.001 0.054-0.001 0.352 0 0.67 0.148 0.895 0.385l0 0.001c0.227 0.228 0.367 0.543 0.367 0.891 0 0.015-0 0.030-0.001 0.045l0-0.002c0 0.013 0.001 0.028 0.001 0.042 0 0.348-0.14 0.663-0.367 0.891l-6.133 6.133c-0.267 0.267-0.579 0.4-0.933 0.4-0.001 0-0.002 0-0.004 0-0.366 0-0.696-0.153-0.929-0.399l-0.001-0.001-6.133-6.133c-0.235-0.234-0.382-0.558-0.384-0.916v-0c-0.001-0.016-0.001-0.034-0.001-0.052 0-0.353 0.148-0.672 0.385-0.898l0.001-0c0.228-0.227 0.543-0.367 0.891-0.367 0.015 0 0.030 0 0.045 0.001l-0.002-0c0.377 0 0.688 0.123 0.933 0.367l3.867 3.833z"></path>
</symbol>
<symbol id="icon-Favorite" viewBox="0 0 32 32">
<path fill="#ddd" style="fill: var(--color1, #ddd)" d="M14.2 26.4l-2.3-2.1c-2.251-2.054-4.335-4.147-6.313-6.338l-0.071-0.080c-1.9-2.123-2.851-4.461-2.849-7.016 0-2.089 0.7-3.833 2.1-5.233s3.144-2.1 5.233-2.1c0.011-0 0.024-0 0.036-0 1.199 0 2.333 0.277 3.342 0.769l-0.045-0.020c1.044 0.5 1.933 1.183 2.667 2.051 0.725-0.854 1.613-1.545 2.619-2.030l0.048-0.021c0.962-0.473 2.095-0.749 3.291-0.749 0.015 0 0.029 0 0.044 0h-0.002c2.089 0 3.833 0.7 5.233 2.1s2.1 3.144 2.1 5.233c0 2.556-0.944 4.9-2.833 7.033-2.046 2.287-4.146 4.388-6.357 6.366l-0.076 0.067-2.267 2.067c-0.456 0.453-1.084 0.733-1.777 0.733-0.008 0-0.016-0-0.024-0h0.001c-0.007 0-0.015 0-0.023 0-0.694 0-1.322-0.28-1.777-0.734l0 0zM14.733 9c-0.644-0.911-1.333-1.605-2.067-2.084s-1.623-0.717-2.667-0.716c-1.333 0-2.444 0.444-3.333 1.333s-1.333 2-1.333 3.333c0 1.156 0.411 2.384 1.233 3.684 0.913 1.421 1.885 2.657 2.962 3.794l-0.011-0.012c1.124 1.201 2.276 2.322 3.479 3.387l0.054 0.047c1.212 1.067 2.195 1.944 2.949 2.633 0.756-0.689 1.739-1.567 2.951-2.633s2.389-2.211 3.533-3.433c1.064-1.126 2.036-2.362 2.889-3.683l0.061-0.1c0.823-1.3 1.233-2.528 1.233-3.684 0-1.333-0.444-2.444-1.333-3.333s-2-1.333-3.333-1.333c-1.044 0-1.933 0.239-2.667 0.716s-1.423 1.172-2.067 2.084c-0.277 0.405-0.736 0.667-1.256 0.667-0.004 0-0.007 0-0.011-0h0.001c-0.003 0-0.007 0-0.010 0-0.521 0-0.98-0.262-1.253-0.662l-0.003-0.005z"></path>
</symbol>
<symbol id="icon-FavoriteActive" viewBox="0 0 32 32">
<path fill="#ddd" style="fill: var(--color1, #ddd)" d="M16 28l-1.933-1.733c-2.244-2.023-4.1-3.767-5.567-5.233s-2.633-2.784-3.5-3.951c-0.867-1.167-1.472-2.239-1.816-3.216-0.327-0.893-0.516-1.924-0.517-3v-0c0-2.089 0.7-3.833 2.1-5.233s3.144-2.1 5.233-2.1c0.007-0 0.014-0 0.022-0 1.191 0 2.318 0.27 3.324 0.753l-0.046-0.020c1.068 0.506 1.968 1.203 2.691 2.055l0.009 0.011c0.732-0.864 1.632-1.561 2.652-2.046l0.048-0.020c0.96-0.463 2.087-0.733 3.278-0.733 0.008 0 0.016 0 0.023 0h-0.001c2.089 0 3.833 0.7 5.233 2.1s2.1 3.144 2.1 5.233c0 1.023-0.173 2.023-0.517 3-0.345 0.977-0.951 2.049-1.816 3.216-0.867 1.167-2.033 2.484-3.5 3.951s-3.323 3.211-5.567 5.233l-1.933 1.733z"></path>
</symbol>
<symbol id="icon-Filter" viewBox="0 0 32 32">
<path fill="#ddd" style="fill: var(--color1, #ddd)" d="M14.667 24c-0.009 0-0.021 0-0.032 0-0.36 0-0.685-0.147-0.919-0.384l-0-0c-0.237-0.233-0.383-0.557-0.383-0.915 0-0.012 0-0.024 0-0.036l-0 0.002c0-0.377 0.128-0.695 0.384-0.951 0.233-0.237 0.557-0.383 0.915-0.383 0.012 0 0.024 0 0.036 0l-0.002-0h2.667c0.377 0 0.695 0.128 0.951 0.384s0.384 0.573 0.383 0.949c0 0.009 0 0.021 0 0.032 0 0.36-0.147 0.685-0.384 0.919l-0 0c-0.233 0.237-0.557 0.383-0.915 0.383-0.012 0-0.024-0-0.036-0l0.002 0h-2.667zM5.333 10.667c-0.009 0-0.021 0-0.032 0-0.36 0-0.685-0.147-0.919-0.384l-0-0c-0.237-0.233-0.383-0.557-0.383-0.915 0-0.012 0-0.024 0-0.036l-0 0.002c0-0.377 0.128-0.695 0.384-0.951 0.233-0.237 0.557-0.383 0.915-0.383 0.012 0 0.024 0 0.036 0l-0.002-0h21.333c0.377 0 0.695 0.128 0.951 0.384s0.384 0.573 0.383 0.949c0 0.009 0 0.021 0 0.032 0 0.36-0.147 0.685-0.384 0.919l-0 0c-0.233 0.237-0.557 0.383-0.915 0.383-0.012 0-0.024-0-0.036-0l0.002 0h-21.333zM9.333 17.333c-0.009 0-0.021 0-0.032 0-0.36 0-0.685-0.147-0.919-0.384l-0-0c-0.237-0.233-0.383-0.557-0.383-0.915 0-0.012 0-0.024 0-0.036l-0 0.002c0-0.377 0.128-0.695 0.384-0.951 0.233-0.237 0.557-0.383 0.915-0.383 0.012 0 0.024 0 0.036 0l-0.002-0h13.333c0.377 0 0.695 0.128 0.951 0.384s0.384 0.573 0.383 0.949c0 0.009 0 0.021 0 0.032 0 0.36-0.147 0.685-0.384 0.919l-0 0c-0.233 0.237-0.557 0.383-0.915 0.383-0.012 0-0.024-0-0.036-0l0.002 0h-13.333z"></path>
</symbol>
<symbol id="icon-Menu" viewBox="0 0 32 32">
<path fill="#ddd" style="fill: var(--color1, #ddd)" d="M10.667 24h-5.333c-0.009 0-0.021 0-0.032 0-0.36 0-0.685-0.147-0.919-0.384l-0-0c-0.237-0.233-0.383-0.557-0.383-0.915 0-0.012 0-0.024 0-0.036l-0 0.002c0-0.377 0.128-0.695 0.384-0.951 0.233-0.237 0.557-0.383 0.915-0.383 0.012 0 0.024 0 0.036 0l-0.002-0h5.333c0.377 0 0.695 0.128 0.951 0.384s0.384 0.573 0.383 0.949c0 0.009 0 0.021 0 0.032 0 0.36-0.147 0.685-0.384 0.919l-0 0c-0.233 0.237-0.557 0.383-0.915 0.383-0.012 0-0.024-0-0.036-0l0.002 0zM26.667 10.667h-21.333c-0.009 0-0.021 0-0.032 0-0.36 0-0.685-0.147-0.919-0.384l-0-0c-0.237-0.233-0.383-0.557-0.383-0.915 0-0.012 0-0.024 0-0.036l-0 0.002c0-0.377 0.128-0.695 0.384-0.951 0.233-0.237 0.557-0.383 0.915-0.383 0.012 0 0.024 0 0.036 0l-0.002-0h21.333c0.377 0 0.695 0.128 0.951 0.384s0.384 0.573 0.383 0.949c0 0.009 0 0.021 0 0.032 0 0.36-0.147 0.685-0.384 0.919l-0 0c-0.233 0.237-0.557 0.383-0.915 0.383-0.012 0-0.024-0-0.036-0l0.002 0zM18.667 17.333h-13.333c-0.009 0-0.021 0-0.032 0-0.36 0-0.685-0.147-0.919-0.384l-0-0c-0.237-0.233-0.383-0.557-0.383-0.915 0-0.012 0-0.024 0-0.036l-0 0.002c0-0.377 0.128-0.695 0.384-0.951 0.233-0.237 0.557-0.383 0.915-0.383 0.012 0 0.024 0 0.036 0l-0.002-0h13.333c0.377 0 0.695 0.128 0.951 0.384s0.384 0.573 0.383 0.949c0 0.009 0 0.021 0 0.032 0 0.36-0.147 0.685-0.384 0.919l-0 0c-0.233 0.237-0.557 0.383-0.915 0.383-0.012 0-0.024-0-0.036-0l0.002 0z"></path>
</symbol>
<symbol id="icon-More" viewBox="0 0 32 32">
<path fill="#ddd" style="fill: var(--color1, #ddd)" d="M8 18.667c-0.733 0-1.361-0.261-1.884-0.784-0.483-0.467-0.783-1.12-0.783-1.844 0-0.014 0-0.027 0-0.041l-0 0.002c0-0.733 0.261-1.361 0.784-1.884 0.467-0.483 1.12-0.783 1.844-0.783 0.014 0 0.027 0 0.041 0l-0.002-0c0.733 0 1.361 0.261 1.884 0.784s0.784 1.151 0.783 1.883c0 0.733-0.261 1.361-0.784 1.884-0.467 0.483-1.12 0.783-1.844 0.783-0.014 0-0.027-0-0.041-0l0.002 0zM16 18.667c-0.733 0-1.361-0.261-1.884-0.784-0.483-0.467-0.783-1.12-0.783-1.844 0-0.014 0-0.027 0-0.041l-0 0.002c0-0.733 0.261-1.361 0.784-1.884 0.467-0.483 1.12-0.783 1.844-0.783 0.014 0 0.027 0 0.041 0l-0.002-0c0.733 0 1.361 0.261 1.884 0.784s0.784 1.151 0.783 1.883c0 0.733-0.261 1.361-0.784 1.884-0.467 0.483-1.12 0.783-1.844 0.783-0.014 0-0.027-0-0.041-0l0.002 0zM24 18.667c-0.733 0-1.361-0.261-1.884-0.784-0.483-0.467-0.783-1.12-0.783-1.844 0-0.014 0-0.027 0-0.041l-0 0.002c0-0.733 0.261-1.361 0.784-1.884 0.467-0.483 1.12-0.783 1.844-0.783 0.014 0 0.027 0 0.041 0l-0.002-0c0.733 0 1.361 0.261 1.884 0.784s0.784 1.151 0.783 1.883c0 0.733-0.261 1.361-0.784 1.884-0.467 0.483-1.12 0.783-1.844 0.783-0.014 0-0.027-0-0.041-0l0.002 0z"></path>
</symbol>
<symbol id="icon-Search" viewBox="0 0 32 32">
<path fill="#ddd" style="fill: var(--color1, #ddd)" d="M25.2 27.067l-7.467-7.467c-1.367 1.081-3.116 1.733-5.017 1.733-0.017 0-0.035-0-0.052-0h0.003c-2.423 0-4.472-0.84-6.149-2.517-1.677-1.679-2.516-3.728-2.517-6.149 0-2.423 0.84-4.472 2.517-6.149 1.679-1.677 3.728-2.516 6.149-2.517 2.423 0 4.472 0.84 6.149 2.517 1.677 1.679 2.516 3.728 2.517 6.149 0 0.015 0 0.032 0 0.049 0 1.901-0.653 3.65-1.747 5.035l0.013-0.017 7.5 7.5c0.227 0.222 0.367 0.532 0.367 0.874 0 0.009-0 0.018-0 0.027l0-0.001c0 0.356-0.133 0.667-0.4 0.933-0.228 0.227-0.543 0.367-0.891 0.367-0.015 0-0.030-0-0.045-0.001l0.002 0c-0.013 0-0.027 0.001-0.042 0.001-0.348 0-0.663-0.14-0.891-0.367l0 0zM12.667 18.667c1.667 0 3.084-0.584 4.251-1.751s1.751-2.584 1.749-4.249c0-1.667-0.584-3.084-1.751-4.251s-2.584-1.751-4.249-1.749c-1.667 0-3.084 0.584-4.251 1.751s-1.751 2.584-1.749 4.249c0 1.667 0.584 3.084 1.751 4.251s2.584 1.751 4.249 1.749z"></path>
</symbol>
<symbol id="icon-SortA-Z" viewBox="0 0 29 32">
<path fill="#ddd" style="fill: var(--color1, #ddd)" d="M5.76 18.133c-0.409 0-0.706-0.133-0.893-0.4s-0.209-0.595-0.067-0.987l3.067-8.213c0.107-0.302 0.311-0.556 0.613-0.761s0.613-0.307 0.933-0.306c0.302 0 0.609 0.102 0.921 0.306s0.519 0.458 0.625 0.761l3.093 8.24c0.142 0.373 0.119 0.693-0.067 0.96s-0.484 0.4-0.893 0.4c-0.215-0.003-0.413-0.073-0.576-0.189l0.003 0.002c-0.176-0.114-0.311-0.279-0.385-0.473l-0.002-0.007-0.666-1.893h-4.107l-0.613 1.867c-0.078 0.205-0.212 0.373-0.384 0.492l-0.003 0.002c-0.165 0.124-0.373 0.199-0.599 0.199h-0zM8 13.76h2.773l-1.28-4h-0.16l-1.333 4zM18.053 18.133c-0.004 0-0.008 0-0.012 0-0.357 0-0.679-0.148-0.908-0.387l-0-0c-0.238-0.228-0.386-0.549-0.386-0.904 0-0.005 0-0.011 0-0.016v0.001c0-0.195 0.045-0.422 0.133-0.681s0.195-0.459 0.32-0.599l4.933-6.16h-4.213c-0.005 0-0.010 0-0.016 0-0.261 0-0.496-0.107-0.664-0.28l-0-0c-0.173-0.168-0.28-0.402-0.28-0.661 0-0.006 0-0.013 0-0.019v0.001c-0-0.005-0-0.010-0-0.016 0-0.261 0.107-0.496 0.28-0.665l0-0c0.168-0.173 0.402-0.28 0.661-0.28 0.006 0 0.013 0 0.019 0h5.252c0.355 0 0.662 0.129 0.921 0.387s0.387 0.574 0.386 0.946c0 0.195-0.039 0.418-0.119 0.667s-0.181 0.445-0.307 0.587l-4.907 6.16h4.427c0.005-0 0.010-0 0.016-0 0.261 0 0.496 0.107 0.665 0.28l0 0c0.173 0.168 0.28 0.402 0.28 0.661 0 0.006-0 0.013-0 0.019v-0.001c0 0.005 0 0.010 0 0.016 0 0.261-0.107 0.496-0.28 0.665l-0 0c-0.168 0.173-0.402 0.28-0.661 0.28-0.006 0-0.013-0-0.019-0h-5.519zM13.013 5.333c-0.249 0-0.418-0.107-0.507-0.32s-0.045-0.409 0.133-0.587l1.92-1.92c0.035-0.035 0.16-0.089 0.373-0.16 0.035 0 0.16 0.053 0.373 0.16l1.92 1.92c0.178 0.178 0.222 0.373 0.133 0.587s-0.258 0.32-0.507 0.32h-3.84zM14.933 23.253c-0.035 0-0.16-0.053-0.373-0.16l-1.92-1.92c-0.178-0.178-0.222-0.373-0.133-0.587s0.258-0.32 0.507-0.32h3.84c0.249 0 0.418 0.107 0.507 0.32s0.045 0.409-0.133 0.587l-1.92 1.92c-0.035 0.035-0.16 0.089-0.373 0.16z"></path>
</symbol>
<symbol id="icon-Steam" viewBox="0 0 32 32">
<path fill="#fff" style="fill: var(--color2, #fff)" d="M15.943 0c-8.401 0-15.291 6.48-15.943 14.716l8.576 3.544c0.713-0.492 1.595-0.787 2.547-0.787 0.001 0 0.002 0 0.003 0h-0c0.084 0 0.167 0.005 0.251 0.008l3.815-5.523v-0.079c0.003-3.33 2.702-6.029 6.032-6.032h0c3.331 0.005 6.029 2.705 6.032 6.036v0c-0.004 3.33-2.702 6.029-6.032 6.033h-0.14l-5.435 3.881c0 0.069 0.005 0.14 0.005 0.212 0 0.002 0 0.003 0 0.005 0 2.497-2.023 4.521-4.52 4.523h-0c-2.183-0.008-4.003-1.551-4.436-3.606l-0.005-0.030-6.14-2.543c1.901 6.716 8.067 11.64 15.391 11.64 8.836 0 15.999-7.164 15.999-16s-7.164-16-15.999-16zM10.024 24.28l-1.964-0.813c0.349 0.724 0.952 1.332 1.752 1.667 0.385 0.165 0.834 0.26 1.304 0.26 1.878 0 3.4-1.522 3.4-3.4 0-0.466-0.094-0.91-0.263-1.315l0.008 0.022c-0.522-1.245-1.731-2.103-3.14-2.103-0.431 0-0.844 0.080-1.223 0.227l0.023-0.008 2.031 0.84c0.912 0.388 1.54 1.276 1.54 2.311 0 1.383-1.121 2.504-2.504 2.504-0.348 0-0.679-0.071-0.98-0.199l0.016 0.006zM25.244 11.876c-0.004-2.219-1.801-4.016-4.020-4.020h-0c-2.22 0-4.020 1.8-4.020 4.020s1.8 4.020 4.020 4.020c2.22 0 4.020-1.8 4.020-4.020v0zM18.213 11.869c-0-0.019-0.001-0.041-0.001-0.063 0-1.669 1.353-3.021 3.021-3.021s3.021 1.353 3.021 3.021c0 0.022-0 0.045-0.001 0.067l0-0.003c-0.036 1.641-1.374 2.958-3.021 2.958s-2.985-1.317-3.021-2.955l-0-0.003z"></path>
</symbol>
<symbol id="icon-onfirm" viewBox="0 0 32 32">
<path fill="#ddd" style="fill: var(--color1, #ddd)" d="M15.067 19.733c0.267 0.267 0.577 0.4 0.933 0.4s0.667-0.133 0.933-0.4l4.133-4.133c0.218-0.218 0.352-0.52 0.352-0.852 0-0.028-0.001-0.057-0.003-0.085l0 0.004c0-0 0-0 0-0.001 0-0.364-0.146-0.693-0.383-0.933l0 0c-0.234-0.247-0.564-0.4-0.93-0.4-0.001 0-0.003 0-0.004 0h0c-0.356 0-0.667 0.133-0.933 0.4l-3.167 3.167-3.2-3.2c-0.219-0.218-0.522-0.353-0.856-0.353-0.027 0-0.054 0.001-0.081 0.003l0.004-0c-0.001 0-0.002 0-0.004 0-0.363 0-0.691 0.147-0.93 0.384l0-0c-0.267 0.267-0.4 0.577-0.4 0.933s0.133 0.667 0.4 0.933l4.133 4.133zM16 29.333c-0.025 0-0.055 0-0.084 0-1.849 0-3.607-0.387-5.199-1.084l0.083 0.033c-1.644-0.709-3.048-1.67-4.234-2.85l0.001 0.001c-1.2-1.2-2.149-2.611-2.849-4.233-0.664-1.51-1.051-3.271-1.051-5.122 0-0.027 0-0.055 0-0.082l-0 0.004c-0-0.024-0-0.053-0-0.082 0-1.85 0.387-3.609 1.083-5.201l-0.033 0.084c0.709-1.644 1.67-3.048 2.85-4.234l-0.001 0.001c1.2-1.2 2.611-2.149 4.233-2.849 1.51-0.664 3.271-1.051 5.122-1.051 0.027 0 0.055 0 0.082 0l-0.004-0c0.024-0 0.053-0 0.082-0 1.85 0 3.609 0.387 5.201 1.083l-0.084-0.033c1.644 0.709 3.048 1.67 4.234 2.85l-0.001-0.001c1.2 1.2 2.151 2.611 2.851 4.233 0.663 1.506 1.050 3.263 1.050 5.109 0 0.032-0 0.064-0 0.096l0-0.005c0 0.025 0 0.055 0 0.084 0 1.849-0.387 3.607-1.084 5.199l0.033-0.083c-0.709 1.644-1.67 3.048-2.85 4.234l0.001-0.001c-1.2 1.2-2.611 2.151-4.233 2.851-1.506 0.663-3.263 1.050-5.109 1.050-0.032 0-0.064-0-0.096-0l0.005 0zM16 26.667c2.956 0 5.472-1.039 7.551-3.116s3.117-4.595 3.116-7.551c0-2.956-1.039-5.472-3.116-7.551s-4.595-3.117-7.551-3.116c-2.956 0-5.472 1.039-7.551 3.116s-3.117 4.595-3.116 7.551c0 2.956 1.039 5.472 3.116 7.551s4.595 3.117 7.551 3.116z"></path>
</symbol>
<symbol id="icon-onfirmactive" viewBox="0 0 30 32">
<path fill="#ddd" style="fill: var(--color1, #ddd)" d="M14.187 15.787c0.183 0.182 0.435 0.294 0.713 0.294 0.012 0 0.024-0 0.036-0.001l-0.002 0c0.010 0 0.022 0.001 0.034 0.001 0.278 0 0.53-0.112 0.713-0.294l3.307-3.307c0.181-0.18 0.294-0.43 0.294-0.705 0-0.010-0-0.019-0-0.029l0 0.001c0-0.293-0.107-0.546-0.32-0.761-0.183-0.182-0.435-0.294-0.713-0.294-0.012 0-0.024 0-0.036 0.001l0.002-0c-0.010-0-0.022-0.001-0.034-0.001-0.278 0-0.53 0.112-0.713 0.294l-2.533 2.533-2.56-2.56c-0.18-0.181-0.43-0.294-0.705-0.294-0.010 0-0.019 0-0.029 0l0.001-0c-0.293 0-0.546 0.107-0.761 0.32-0.182 0.183-0.294 0.435-0.294 0.713 0 0.012 0 0.024 0.001 0.036l-0-0.002c-0 0.010-0.001 0.021-0.001 0.033 0 0.278 0.112 0.531 0.294 0.714l3.307 3.307zM14.933 23.467c-0.020 0-0.044 0-0.067 0-1.479 0-2.886-0.309-4.159-0.867l0.067 0.026c-1.315-0.567-2.438-1.336-3.387-2.28l0 0c-0.96-0.96-1.719-2.089-2.279-3.387-0.531-1.208-0.841-2.617-0.841-4.097 0-0.022 0-0.044 0-0.066l-0 0.003c-0-0.020-0-0.043-0-0.066 0-1.48 0.309-2.887 0.867-4.161l-0.026 0.067c0.567-1.315 1.336-2.438 2.28-3.387l-0 0c0.96-0.96 2.089-1.719 3.387-2.279 1.208-0.531 2.617-0.841 4.097-0.841 0.022 0 0.044 0 0.066 0l-0.003-0c0.020-0 0.043-0 0.066-0 1.48 0 2.887 0.309 4.161 0.867l-0.067-0.026c1.315 0.567 2.438 1.336 3.387 2.28l-0-0c0.96 0.96 1.721 2.089 2.281 3.387 0.531 1.205 0.84 2.61 0.84 4.087 0 0.025-0 0.051-0 0.076l0-0.004c0 0.020 0 0.044 0 0.067 0 1.479-0.309 2.886-0.867 4.159l0.026-0.067c-0.567 1.315-1.336 2.438-2.28 3.387l0-0c-0.96 0.96-2.089 1.721-3.387 2.281-1.205 0.531-2.61 0.84-4.087 0.84-0.025 0-0.051-0-0.076-0l0.004 0z"></path>
</symbol>
</defs>
</svg>
