<svg aria-hidden="true" style="position: absolute; width: 0; height: 0; overflow: hidden;" version="1.1" xmlns="http://www.w3.org/2000/svg" xmlns:xlink="http://www.w3.org/1999/xlink">
<defs>
<symbol id="icon-menu-burger" viewBox="0 0 32 32">
<path fill="#fff" style="fill: var(--color1, #fff)" d="M19.879 21.818h3.879c0.275 0 0.505-0.093 0.691-0.279s0.279-0.416 0.278-0.69c0-0.275-0.093-0.505-0.279-0.691s-0.416-0.279-0.69-0.278h-3.879c-0.275 0-0.505 0.093-0.691 0.279s-0.279 0.416-0.278 0.69c0 0.275 0.093 0.505 0.279 0.691s0.416 0.279 0.69 0.278zM8.242 12.121h15.515c0.275 0 0.505-0.093 0.691-0.279s0.279-0.416 0.278-0.69c0-0.275-0.093-0.505-0.279-0.691s-0.416-0.279-0.69-0.278h-15.515c-0.275 0-0.505 0.093-0.691 0.279s-0.279 0.416-0.278 0.69c0 0.275 0.093 0.505 0.279 0.691s0.416 0.279 0.69 0.278zM14.061 16.97h9.697c0.275 0 0.505-0.093 0.691-0.279s0.279-0.416 0.278-0.69c0-0.275-0.093-0.505-0.279-0.691s-0.416-0.279-0.69-0.278h-9.697c-0.275 0-0.505 0.093-0.691 0.279s-0.279 0.416-0.278 0.69c0 0.275 0.093 0.505 0.279 0.691s0.416 0.279 0.69 0.278z"></path>
</symbol>
<symbol id="icon-menu-close" viewBox="0 0 32 32">
<path fill="#fff" style="fill: var(--color1, #fff)" d="M16 17.866l-6.533 6.533c-0.244 0.244-0.556 0.367-0.933 0.367s-0.689-0.122-0.933-0.367-0.367-0.556-0.367-0.933c0-0.378 0.122-0.689 0.367-0.933l6.533-6.533-6.533-6.533c-0.244-0.244-0.367-0.556-0.367-0.933s0.122-0.689 0.367-0.933 0.556-0.367 0.933-0.367c0.378 0 0.689 0.122 0.933 0.367l6.533 6.533 6.533-6.533c0.244-0.244 0.556-0.367 0.933-0.367s0.689 0.122 0.933 0.367 0.367 0.556 0.367 0.933c0 0.378-0.122 0.689-0.367 0.933l-6.533 6.533 6.533 6.533c0.244 0.244 0.367 0.556 0.367 0.933s-0.122 0.689-0.367 0.933-0.556 0.367-0.933 0.367c-0.378 0-0.689-0.122-0.933-0.367l-6.533-6.533z"></path>
</symbol>
</defs>
</svg>
