<svg aria-hidden="true" style="position: absolute; width: 0; height: 0; overflow: hidden;" version="1.1" xmlns="http://www.w3.org/2000/svg" xmlns:xlink="http://www.w3.org/1999/xlink">
<defs>
<symbol id="icon-Discord" viewBox="0 0 32 32">
<path fill="#ddd" style="fill: var(--color1, #ddd)" d="M22.049 10.451c-1.026-0.484-2.218-0.867-3.465-1.089l-0.087-0.013c-0.003-0.001-0.007-0.001-0.011-0.001-0.020 0-0.038 0.011-0.047 0.028l-0 0c-0.153 0.273-0.323 0.628-0.442 0.909-0.6-0.096-1.291-0.151-1.995-0.151s-1.395 0.055-2.070 0.16l0.075-0.010c-0.157-0.367-0.307-0.665-0.472-0.954l0.024 0.045c-0.010-0.017-0.028-0.028-0.048-0.028-0.003 0-0.007 0-0.010 0.001l0-0c-1.227 0.212-2.421 0.582-3.553 1.102-0.009 0.004-0.017 0.011-0.022 0.019l-0 0c-2.264 3.381-2.884 6.679-2.579 9.935 0.001 0.017 0.010 0.031 0.022 0.041l0 0c1.246 0.932 2.694 1.683 4.256 2.176l0.102 0.028c0.005 0.001 0.010 0.002 0.016 0.002 0.018 0 0.035-0.009 0.045-0.022l0-0c0.312-0.419 0.608-0.894 0.865-1.393l0.027-0.058c0.004-0.007 0.006-0.016 0.006-0.026 0-0.023-0.014-0.043-0.035-0.051l-0-0c-0.531-0.205-0.98-0.423-1.407-0.673l0.045 0.024c-0.016-0.009-0.027-0.026-0.028-0.045v-0c-0-0.001-0-0.003-0-0.004 0-0.018 0.009-0.034 0.022-0.044l0-0c0.108-0.080 0.196-0.15 0.282-0.222l-0.011 0.009c0.009-0.008 0.021-0.012 0.034-0.012 0.008 0 0.016 0.002 0.022 0.005l-0-0c2.857 1.304 5.949 1.304 8.772 0 0.007-0.003 0.015-0.005 0.023-0.005 0.013 0 0.025 0.005 0.035 0.013l-0-0c0.087 0.071 0.178 0.144 0.271 0.212 0.014 0.010 0.022 0.026 0.022 0.045 0 0.020-0.011 0.038-0.026 0.048l-0 0c-0.384 0.23-0.833 0.448-1.3 0.628l-0.061 0.021c-0.015 0.006-0.027 0.017-0.033 0.032l-0 0c-0.002 0.006-0.004 0.013-0.004 0.020 0 0.010 0.002 0.019 0.007 0.026l-0-0c0.262 0.508 0.561 0.991 0.89 1.449 0.010 0.014 0.026 0.023 0.044 0.023 0.006 0 0.012-0.001 0.017-0.003l-0 0c1.668-0.519 3.118-1.27 4.403-2.231l-0.038 0.027c0.013-0.009 0.021-0.023 0.023-0.039l0-0c0.364-3.765-0.609-7.036-2.58-9.935-0.005-0.010-0.013-0.017-0.023-0.021l-0-0zM13.105 18.422c-0.86 0-1.568-0.789-1.568-1.759s0.695-1.759 1.568-1.759c0.88 0 1.583 0.797 1.569 1.76 0 0.969-0.695 1.759-1.569 1.759zM18.906 18.422c-0.86 0-1.569-0.789-1.569-1.759s0.695-1.759 1.569-1.759c0.88 0 1.583 0.797 1.569 1.76 0 0.969-0.689 1.759-1.569 1.759z"></path>
<path fill="none" stroke="#ddd" style="stroke: var(--color1, #ddd)" stroke-linejoin="miter" stroke-linecap="butt" stroke-miterlimit="4" stroke-width="1.4545" d="M16 2.182c7.632 0 13.818 6.187 13.818 13.818s-6.187 13.818-13.818 13.818c-7.632 0-13.818-6.187-13.818-13.818s6.187-13.818 13.818-13.818z"></path>
</symbol>
<symbol id="icon-Facebook" viewBox="0 0 32 32">
<path fill="#ddd" style="fill: var(--color1, #ddd)" d="M24.727 16c0-4.82-3.908-8.727-8.727-8.727s-8.727 3.908-8.727 8.727c0 4.356 3.191 7.967 7.364 8.621v-6.098h-2.216v-2.524h2.216v-1.921c0-2.187 1.303-3.396 3.297-3.396 0.954 0 1.953 0.171 1.953 0.171v2.148h-1.101c-1.084 0-1.423 0.673-1.423 1.363v1.636h2.42l-0.387 2.524h-2.033v6.098c4.173-0.655 7.364-4.266 7.364-8.622z"></path>
<path fill="none" stroke="#ddd" style="stroke: var(--color1, #ddd)" stroke-linejoin="miter" stroke-linecap="butt" stroke-miterlimit="4" stroke-width="1.4545" d="M16 2.182c7.632 0 13.818 6.187 13.818 13.818s-6.187 13.818-13.818 13.818c-7.632 0-13.818-6.187-13.818-13.818s6.187-13.818 13.818-13.818z"></path>
</symbol>
<symbol id="icon-Hide-hover" viewBox="0 0 32 32">
<path fill="#ddd" style="fill: var(--color1, #ddd)" d="M20.284 13.3c0.123 0.125 0.2 0.296 0.2 0.486 0 0.008-0 0.017-0 0.025l0-0.001c0 0.007 0 0.015 0 0.023 0 0.19-0.077 0.361-0.2 0.486l-4.073 4.073c-0.073 0.073-0.151 0.124-0.236 0.154-0.081 0.030-0.175 0.047-0.273 0.047s-0.191-0.017-0.278-0.048l0.006 0.002c-0.093-0.035-0.172-0.088-0.236-0.154l-4.073-4.073c-0.128-0.128-0.208-0.305-0.209-0.5v-0c-0-0.009-0.001-0.019-0.001-0.029 0-0.192 0.081-0.366 0.21-0.488l0-0c0.125-0.123 0.296-0.2 0.485-0.2 0.008 0 0.017 0 0.025 0l-0.001-0c0.206 0 0.376 0.066 0.509 0.199l3.564 3.545 3.564-3.545c0.128-0.128 0.304-0.208 0.499-0.209h0c0.009-0 0.019-0.001 0.029-0.001 0.193 0 0.366 0.081 0.49 0.21l0 0z"></path>
<path fill="none" stroke="#ddd" style="stroke: var(--color1, #ddd)" stroke-linejoin="miter" stroke-linecap="butt" stroke-miterlimit="4" stroke-width="1.4545" d="M16 2.182c7.632 0 13.818 6.187 13.818 13.818s-6.187 13.818-13.818 13.818c-7.632 0-13.818-6.187-13.818-13.818s6.187-13.818 13.818-13.818z"></path>
</symbol>
<symbol id="icon-Instagram" viewBox="0 0 32 32">
<path fill="#ddd" style="fill: var(--color1, #ddd)" d="M16 7.273c2.371 0 2.667 0.009 3.597 0.052s1.562 0.189 2.119 0.406c0.605 0.231 1.121 0.573 1.546 1.006l0.001 0.001c0.433 0.425 0.775 0.941 0.997 1.517l0.010 0.029c0.215 0.556 0.362 1.19 0.406 2.119 0.041 0.93 0.052 1.226 0.052 3.597s-0.009 2.667-0.052 3.597c-0.044 0.929-0.191 1.562-0.406 2.119-0.231 0.605-0.573 1.121-1.006 1.546l-0.001 0.001c-0.425 0.433-0.941 0.775-1.517 0.997l-0.029 0.010c-0.556 0.215-1.19 0.362-2.119 0.406-0.93 0.041-1.226 0.052-3.597 0.052s-2.667-0.009-3.597-0.052c-0.929-0.044-1.562-0.191-2.119-0.406-0.605-0.231-1.121-0.573-1.546-1.006l-0.001-0.001c-0.433-0.425-0.775-0.941-0.997-1.517l-0.010-0.029c-0.217-0.556-0.362-1.19-0.406-2.119-0.041-0.93-0.052-1.226-0.052-3.597s0.009-2.667 0.052-3.597c0.044-0.931 0.189-1.562 0.406-2.119 0.218-0.583 0.562-1.111 1.007-1.546 0.425-0.433 0.941-0.775 1.517-0.997l0.029-0.010c0.557-0.217 1.188-0.362 2.119-0.406 0.93-0.041 1.226-0.052 3.597-0.052zM16 11.636c-2.41 0-4.364 1.954-4.364 4.364s1.954 4.364 4.364 4.364v0c2.41 0 4.364-1.954 4.364-4.364s-1.954-4.364-4.364-4.364v0zM21.673 11.418c0-0.603-0.488-1.091-1.091-1.091s-1.091 0.488-1.091 1.091v0c0 0.603 0.488 1.091 1.091 1.091s1.091-0.488 1.091-1.091v0zM16 13.382c1.446 0 2.618 1.172 2.618 2.618s-1.172 2.618-2.618 2.618v0c-1.446 0-2.618-1.172-2.618-2.618s1.172-2.618 2.618-2.618v0z"></path>
<path fill="none" stroke="#ddd" style="stroke: var(--color1, #ddd)" stroke-linejoin="miter" stroke-linecap="butt" stroke-miterlimit="4" stroke-width="1.4545" d="M16 2.182c7.632 0 13.818 6.187 13.818 13.818s-6.187 13.818-13.818 13.818c-7.632 0-13.818-6.187-13.818-13.818s6.187-13.818 13.818-13.818z"></path>
</symbol>
<symbol id="icon-Itch" viewBox="0 0 32 32">
<path fill="#ddd" style="fill: var(--color1, #ddd)" d="M9.549 8.097c-0.764 0.452-2.262 2.175-2.276 2.627v0.749c0 0.948 0.887 1.782 1.691 1.782 0.967 0 1.772-0.801 1.772-1.753 0 0.951 0.778 1.753 1.745 1.753 0.966 0 1.718-0.801 1.718-1.753 0 0.951 0.827 1.753 1.793 1.753h0.017c0.967 0 1.793-0.801 1.793-1.753 0 0.951 0.752 1.753 1.719 1.753s1.745-0.801 1.745-1.753c0 0.951 0.804 1.753 1.771 1.753 0.802 0 1.689-0.835 1.689-1.782v-0.749c-0.015-0.451-1.514-2.175-2.276-2.627-2.366-0.083-4.006-0.097-6.451-0.097s-5.778 0.039-6.451 0.097zM14.186 12.807c-0.097 0.167-0.21 0.311-0.34 0.437l-0.001 0c-0.365 0.357-0.865 0.578-1.417 0.578s-1.052-0.221-1.417-0.578l0 0c-0.125-0.124-0.233-0.265-0.319-0.42l-0.005-0.010c-0.101 0.164-0.218 0.305-0.352 0.428l-0.001 0.001c-0.365 0.358-0.866 0.578-1.418 0.578-0 0-0 0-0 0h0c-0.070-0.002-0.135-0.016-0.196-0.039l0.004 0.001c-0.062 0.617-0.106 1.362-0.122 2.114l-0.001 0.031v0.004l-0.004 0.849c0.015 1.697-0.167 5.501 0.749 6.436 1.42 0.33 4.033 0.481 6.655 0.482s5.235-0.153 6.655-0.483c0.916-0.934 0.735-4.737 0.749-6.435l-0.004-0.849v-0.003c-0.016-0.782-0.060-1.527-0.131-2.264l0.009 0.118c-0.057 0.022-0.122 0.035-0.19 0.038l-0.001 0c-0 0-0 0-0 0-0.552 0-1.053-0.221-1.418-0.579l0 0c-0.136-0.124-0.253-0.265-0.349-0.421l-0.005-0.008c-0.092 0.16-0.193 0.3-0.325 0.429-0.365 0.357-0.865 0.577-1.417 0.577-0.001 0-0.001 0-0.002 0h0c-0.001 0-0.003 0-0.005 0-0.746 0-1.397-0.404-1.747-1.005l-0.005-0.010c-0.096 0.167-0.208 0.311-0.336 0.438l-0 0c-0.365 0.357-0.865 0.577-1.417 0.577-0 0-0.001 0-0.001 0h-0.116c-0.001 0-0.001 0-0.002 0-0.551 0-1.051-0.22-1.416-0.577l0 0c-0.129-0.127-0.241-0.271-0.332-0.428l-0.005-0.010-0.001-0.003zM12.729 14.692c0.578 0.001 1.091 0 1.726 0.693 0.454-0.050 0.981-0.078 1.514-0.078 0.011 0 0.022 0 0.033 0h-0.002c0.524 0 1.046 0.025 1.545 0.078 0.635-0.693 1.148-0.691 1.725-0.693 0.273 0 1.364 0 2.124 2.134l0.817 2.929c0.605 2.178-0.193 2.231-1.19 2.233-1.476-0.055-2.295-1.127-2.295-2.2-0.817 0.134-1.772 0.201-2.726 0.201s-1.908-0.068-2.726-0.201c0 1.073-0.818 2.145-2.295 2.201-0.996-0.003-1.795-0.056-1.19-2.234l0.816-2.929c0.76-2.134 1.851-2.134 2.124-2.134zM16 16.37c-0.001 0.001-1.556 1.428-1.835 1.936l1.018-0.041v0.887c0 0.041 0.407 0.024 0.817 0.005 0.409 0.019 0.817 0.036 0.817-0.006v-0.887l1.018 0.040c-0.281-0.507-1.836-1.935-1.836-1.935z"></path>
<path fill="none" stroke="#ddd" style="stroke: var(--color1, #ddd)" stroke-linejoin="miter" stroke-linecap="butt" stroke-miterlimit="4" stroke-width="1.4545" d="M16 2.182c7.632 0 13.818 6.187 13.818 13.818s-6.187 13.818-13.818 13.818c-7.632 0-13.818-6.187-13.818-13.818s6.187-13.818 13.818-13.818z"></path>
</symbol>
<symbol id="icon-More" viewBox="0 0 32 32">
<path fill="#ddd" style="fill: var(--color1, #ddd)" d="M11.636 17.455c-0.4 0-0.743-0.143-1.028-0.428-0.263-0.255-0.427-0.611-0.427-1.006 0-0.007 0-0.015 0-0.022v0.001c0-0.4 0.143-0.743 0.428-1.028 0.255-0.263 0.611-0.427 1.006-0.427 0.007 0 0.015 0 0.022 0h-0.001c0.4 0 0.743 0.143 1.028 0.428s0.428 0.628 0.427 1.027c0 0.4-0.143 0.743-0.428 1.028-0.255 0.263-0.611 0.427-1.006 0.427-0.007 0-0.015-0-0.022-0h0.001zM16 17.455c-0.4 0-0.743-0.143-1.028-0.428-0.263-0.255-0.427-0.611-0.427-1.006 0-0.007 0-0.015 0-0.022v0.001c0-0.4 0.143-0.743 0.428-1.028 0.255-0.263 0.611-0.427 1.006-0.427 0.007 0 0.015 0 0.022 0h-0.001c0.4 0 0.743 0.143 1.028 0.428s0.428 0.628 0.427 1.027c0 0.4-0.143 0.743-0.428 1.028-0.255 0.263-0.611 0.427-1.006 0.427-0.007 0-0.015-0-0.022-0h0.001zM20.364 17.455c-0.4 0-0.743-0.143-1.028-0.428-0.263-0.255-0.427-0.611-0.427-1.006 0-0.007 0-0.015 0-0.022v0.001c0-0.4 0.143-0.743 0.428-1.028 0.255-0.263 0.611-0.427 1.006-0.427 0.007 0 0.015 0 0.022 0h-0.001c0.4 0 0.743 0.143 1.028 0.428s0.428 0.628 0.427 1.027c0 0.4-0.143 0.743-0.428 1.028-0.255 0.263-0.611 0.427-1.006 0.427-0.007 0-0.015-0-0.022-0h0.001z"></path>
<path fill="none" stroke="#ddd" style="stroke: var(--color1, #ddd)" stroke-linejoin="miter" stroke-linecap="butt" stroke-miterlimit="4" stroke-width="1.4545" d="M16 2.182c7.632 0 13.818 6.187 13.818 13.818s-6.187 13.818-13.818 13.818c-7.632 0-13.818-6.187-13.818-13.818s6.187-13.818 13.818-13.818z"></path>
</symbol>
<symbol id="icon-Steam" viewBox="0 0 32 32">
<path fill="#ddd" style="fill: var(--color1, #ddd)" d="M15.969 7.273c-4.583 0-8.34 3.535-8.696 8.027l4.678 1.933c0.389-0.269 0.87-0.429 1.389-0.429 0 0 0.001 0 0.001 0h-0c0.046 0 0.091 0.003 0.137 0.004l2.081-3.012v-0.043c0.002-1.816 1.474-3.289 3.29-3.29h0c1.817 0.003 3.289 1.475 3.29 3.292v0c-0.002 1.816-1.474 3.288-3.29 3.291h-0.077l-2.964 2.117c0 0.038 0.003 0.076 0.003 0.116 0 0.001 0 0.002 0 0.003 0 1.362-1.104 2.466-2.465 2.467h-0c-1.191-0.004-2.183-0.846-2.42-1.967l-0.003-0.016-3.349-1.387c1.037 3.663 4.4 6.349 8.395 6.349 4.82 0 8.727-3.908 8.727-8.727s-3.908-8.727-8.727-8.727zM12.74 20.516l-1.071-0.444c0.191 0.395 0.519 0.727 0.956 0.909 0.21 0.089 0.454 0.141 0.71 0.141 1.025 0 1.855-0.831 1.855-1.855 0-0.254-0.051-0.495-0.143-0.716l0.005 0.012c-0.285-0.679-0.944-1.147-1.713-1.147-0.235 0-0.46 0.044-0.667 0.124l0.013-0.004 1.108 0.458c0.498 0.211 0.84 0.696 0.84 1.261 0 0.754-0.612 1.366-1.366 1.366-0.19 0-0.37-0.039-0.535-0.109l0.009 0.003zM21.042 13.751c-0.002-1.21-0.983-2.191-2.193-2.193h-0c-1.211 0-2.193 0.982-2.193 2.193s0.982 2.193 2.193 2.193c1.211 0 2.193-0.982 2.193-2.193v0zM17.207 13.747c0-0.91 0.738-1.648 1.648-1.648s1.648 0.738 1.648 1.648v0c0 0.91-0.738 1.648-1.648 1.648s-1.648-0.738-1.648-1.648v0z"></path>
<path fill="none" stroke="#ddd" style="stroke: var(--color1, #ddd)" stroke-linejoin="miter" stroke-linecap="butt" stroke-miterlimit="4" stroke-width="1.4545" d="M16 2.182c7.632 0 13.818 6.187 13.818 13.818s-6.187 13.818-13.818 13.818c-7.632 0-13.818-6.187-13.818-13.818s6.187-13.818 13.818-13.818z"></path>
</symbol>
<symbol id="icon-Telegram" viewBox="0 0 32 32">
<path fill="#ddd" style="fill: var(--color1, #ddd)" d="M15.959 7.273c-4.802 0.023-8.687 3.922-8.687 8.727 0 4.82 3.907 8.727 8.727 8.727 0.014 0 0.029-0 0.043-0h-0.002c4.802-0.023 8.687-3.922 8.687-8.727 0-4.82-3.907-8.727-8.727-8.727-0.014 0-0.029 0-0.043 0h0.002zM19.568 12.527c0.073-0.001 0.233 0.017 0.338 0.102 0.070 0.060 0.114 0.145 0.124 0.236 0.012 0.068 0.026 0.223 0.015 0.343-0.131 1.38-0.7 4.729-0.989 6.274-0.122 0.655-0.363 0.873-0.596 0.895-0.506 0.047-0.891-0.335-1.382-0.656-0.768-0.504-1.202-0.817-1.948-1.309-0.862-0.567-0.303-0.88 0.188-1.389 0.129-0.134 2.361-2.165 2.405-2.349 0.005-0.023 0.010-0.109-0.041-0.154s-0.127-0.030-0.181-0.017c-0.077 0.017-1.304 0.829-3.681 2.433-0.349 0.24-0.664 0.356-0.947 0.349-0.311-0.006-0.911-0.175-1.356-0.32-0.547-0.178-0.981-0.272-0.943-0.574 0.020-0.157 0.236-0.318 0.649-0.482 2.544-1.108 4.24-1.839 5.089-2.192 2.423-1.008 2.927-1.183 3.255-1.189z"></path>
<path fill="none" stroke="#ddd" style="stroke: var(--color1, #ddd)" stroke-linejoin="miter" stroke-linecap="butt" stroke-miterlimit="4" stroke-width="1.4545" d="M16 2.182c7.632 0 13.818 6.187 13.818 13.818s-6.187 13.818-13.818 13.818c-7.632 0-13.818-6.187-13.818-13.818s6.187-13.818 13.818-13.818z"></path>
</symbol>
<symbol id="icon-Twitch" viewBox="0 0 32 32">
<path fill="#ddd" style="fill: var(--color1, #ddd)" d="M15.896 10.701h1.247v3.74h-1.248l0.001-3.74zM19.325 10.701h1.247v3.74h-1.247v-3.74zM11.844 7.273l-3.117 3.117v11.22h3.74v3.117l3.117-3.117h2.493l5.611-5.61v-8.727h-11.844zM22.441 15.377l-2.493 2.493h-2.494l-2.182 2.182v-2.182h-2.805v-9.351h9.974v6.857z"></path>
<path fill="none" stroke="#ddd" style="stroke: var(--color1, #ddd)" stroke-linejoin="miter" stroke-linecap="butt" stroke-miterlimit="4" stroke-width="1.4545" d="M16 2.182c7.632 0 13.818 6.187 13.818 13.818s-6.187 13.818-13.818 13.818c-7.632 0-13.818-6.187-13.818-13.818s6.187-13.818 13.818-13.818z"></path>
</symbol>
<symbol id="icon-Twitter" viewBox="0 0 32 32">
<path fill="#ddd" style="fill: var(--color1, #ddd)" d="M24.693 10.417c-0.598 0.271-1.292 0.469-2.019 0.56l-0.035 0.004c0.739-0.45 1.295-1.137 1.566-1.955l0.007-0.025c-0.692 0.404-1.458 0.698-2.274 0.861-0.655-0.699-1.583-1.134-2.613-1.134-1.976 0-3.578 1.602-3.578 3.578 0 0.289 0.034 0.571 0.099 0.84l-0.005-0.024c-2.975-0.14-5.609-1.569-7.375-3.728-0.304 0.509-0.484 1.123-0.484 1.778 0 0.008 0 0.016 0 0.023v-0.001c0 1.244 0.633 2.337 1.591 2.978-0.598-0.020-1.153-0.183-1.638-0.457l0.018 0.009v0.044c0 0 0 0.001 0 0.002 0 1.726 1.221 3.167 2.847 3.506l0.023 0.004c-0.282 0.079-0.606 0.124-0.94 0.124-0.236 0-0.467-0.023-0.691-0.066l0.023 0.004c0.474 1.433 1.788 2.454 3.345 2.484l0.004 0c-1.207 0.954-2.751 1.531-4.43 1.531-0.003 0-0.005 0-0.008 0h0c-0.284 0-0.567-0.017-0.851-0.049 1.552 1.008 3.451 1.607 5.49 1.607 0.002 0 0.005 0 0.007 0h-0c6.584 0 10.18-5.452 10.18-10.172 0-0.153 0-0.305-0.011-0.458 0.705-0.511 1.299-1.125 1.773-1.826l0.016-0.026-0.034-0.015z"></path>
<path fill="none" stroke="#ddd" style="stroke: var(--color1, #ddd)" stroke-linejoin="miter" stroke-linecap="butt" stroke-miterlimit="4" stroke-width="1.4545" d="M16 2.182c7.632 0 13.818 6.187 13.818 13.818s-6.187 13.818-13.818 13.818c-7.632 0-13.818-6.187-13.818-13.818s6.187-13.818 13.818-13.818z"></path>
</symbol>
<symbol id="icon-Youtube" viewBox="0 0 32 32">
<path fill="#ddd" style="fill: var(--color1, #ddd)" d="M24.362 12.103c-0.206-0.757-0.788-1.343-1.528-1.55l-0.015-0.004c-1.361-0.367-6.819-0.367-6.819-0.367s-5.458 0-6.82 0.367c-0.755 0.211-1.337 0.796-1.539 1.538l-0.004 0.015c-0.365 1.37-0.365 4.228-0.365 4.228s0 2.858 0.365 4.228c0.206 0.757 0.788 1.343 1.528 1.55l0.015 0.004c1.361 0.367 6.819 0.367 6.819 0.367s5.458 0 6.82-0.367c0.756-0.21 1.338-0.796 1.54-1.538l0.004-0.015c0.364-1.37 0.364-4.228 0.364-4.228s0-2.858-0.365-4.228zM14.215 18.926v-5.19l4.562 2.595-4.562 2.595z"></path>
<path fill="none" stroke="#ddd" style="stroke: var(--color1, #ddd)" stroke-linejoin="miter" stroke-linecap="butt" stroke-miterlimit="4" stroke-width="1.4545" d="M16 2.182c7.632 0 13.818 6.187 13.818 13.818s-6.187 13.818-13.818 13.818c-7.632 0-13.818-6.187-13.818-13.818s6.187-13.818 13.818-13.818z"></path>
</symbol>
</defs>
</svg>
